%FSLAX25Y25*%
%MOIN*%
G70*
G01*
G75*
G04 Layer_Color=16711935*
%ADD10R,0.04921X0.07284*%
%ADD11R,0.09252X0.09449*%
%ADD12C,0.02756*%
%ADD13C,0.03150*%
%ADD14C,0.01969*%
%ADD15C,0.05906*%
%ADD16R,0.05906X0.05906*%
%ADD17C,0.06000*%
%ADD18O,0.09449X0.07874*%
%ADD19C,0.07874*%
%ADD20O,0.05906X0.09843*%
%ADD21C,0.04528*%
%ADD22C,0.02756*%
%ADD23C,0.03150*%
%ADD24C,0.13780*%
%ADD25C,0.17000*%
%ADD26R,0.08268X0.03937*%
%ADD27R,0.04500X0.05906*%
%ADD28R,0.02362X0.03937*%
%ADD29R,0.06299X0.05118*%
%ADD30R,0.05906X0.04500*%
%ADD31O,0.06496X0.02165*%
%ADD32O,0.02165X0.06496*%
%ADD33R,0.04000X0.05512*%
%ADD34R,0.03937X0.02362*%
%ADD35C,0.02362*%
%ADD36C,0.00315*%
%ADD37C,0.00197*%
%ADD38C,0.01000*%
%ADD39C,0.00984*%
%ADD40C,0.00787*%
%ADD41C,0.01181*%
%ADD42R,0.02165X0.07284*%
%ADD43R,0.89963X0.10959*%
%ADD44R,0.05721X0.08083*%
%ADD45R,0.10052X0.10249*%
%ADD46C,0.06706*%
%ADD47R,0.06706X0.06706*%
%ADD48C,0.06800*%
%ADD49O,0.10249X0.08674*%
%ADD50C,0.08674*%
%ADD51O,0.06706X0.10642*%
%ADD52C,0.05328*%
%ADD53C,0.03556*%
%ADD54C,0.03950*%
%ADD55C,0.14579*%
%ADD56C,0.17800*%
%ADD57R,0.09068X0.04737*%
%ADD58R,0.05300X0.06706*%
%ADD59R,0.03162X0.04737*%
%ADD60R,0.07099X0.05918*%
%ADD61R,0.06706X0.05300*%
%ADD62O,0.07296X0.02965*%
%ADD63O,0.02965X0.07296*%
%ADD64R,0.04800X0.06312*%
%ADD65R,0.04737X0.03162*%
D46*
X67451Y-169531D02*
D03*
X57451D02*
D03*
X47451D02*
D03*
X37451D02*
D03*
X27451D02*
D03*
D47*
X17451D02*
D03*
D48*
X13058Y-118416D02*
D03*
Y-138416D02*
D03*
D49*
X118849Y-118939D02*
D03*
X144833D02*
D03*
X118849Y-137049D02*
D03*
X144833D02*
D03*
D50*
X50158Y-68416D02*
D03*
X40158D02*
D03*
X30158Y-38416D02*
D03*
X55158Y-28416D02*
D03*
X136781Y-68565D02*
D03*
X126781D02*
D03*
X116781Y-38565D02*
D03*
X141781Y-28565D02*
D03*
X165713Y-68565D02*
D03*
X155713D02*
D03*
X145713Y-38565D02*
D03*
X170713Y-28565D02*
D03*
X21082Y-68416D02*
D03*
X11082D02*
D03*
X1082Y-38416D02*
D03*
X26082Y-28416D02*
D03*
D51*
X74016Y11781D02*
D03*
X103150D02*
D03*
D52*
X88583Y-10463D02*
D03*
X85433Y-5739D02*
D03*
X82284Y-10463D02*
D03*
X91732Y-5739D02*
D03*
X94882Y-10463D02*
D03*
D53*
X91153Y-93256D02*
D03*
X95418Y-86879D02*
D03*
X84970D02*
D03*
X152314Y-6594D02*
D03*
X146131Y-217D02*
D03*
X125237Y-357D02*
D03*
X135684D02*
D03*
X131420Y-6734D02*
D03*
X141867D02*
D03*
X24736Y-572D02*
D03*
X30919Y-6949D02*
D03*
X51814Y-6810D02*
D03*
X41366D02*
D03*
X45631Y-433D02*
D03*
X35184D02*
D03*
X22109Y-81164D02*
D03*
X32556D02*
D03*
X28292Y-87541D02*
D03*
X38739D02*
D03*
X17845Y-87681D02*
D03*
X163535Y-131458D02*
D03*
Y-121011D02*
D03*
X169912Y-125275D02*
D03*
Y-114828D02*
D03*
X170052Y-135722D02*
D03*
X163674Y-141905D02*
D03*
D54*
X70504Y-99902D02*
D03*
X89645Y-161214D02*
D03*
X93309Y-154324D02*
D03*
X96754Y-147327D02*
D03*
X68818Y-109675D02*
D03*
X68384Y-114076D02*
D03*
X68365Y-105332D02*
D03*
X79082Y-33521D02*
D03*
X21225Y-103616D02*
D03*
X38313Y-116884D02*
D03*
X29444Y-97842D02*
D03*
X53497Y-115829D02*
D03*
X120237Y-102969D02*
D03*
X119956Y-88842D02*
D03*
X85568Y-100872D02*
D03*
X69083Y-47076D02*
D03*
X104735Y-44776D02*
D03*
X75962Y-71366D02*
D03*
X96368Y-33356D02*
D03*
D55*
X0Y-167323D02*
D03*
X177165D02*
D03*
X0Y0D02*
D03*
X177165D02*
D03*
Y-88583D02*
D03*
X0D02*
D03*
D56*
X45158Y-48416D02*
D03*
X131781Y-48565D02*
D03*
X160713D02*
D03*
X16082Y-48416D02*
D03*
D57*
X82576Y-147435D02*
D03*
Y-154324D02*
D03*
Y-161214D02*
D03*
X105214D02*
D03*
Y-154324D02*
D03*
Y-147435D02*
D03*
D58*
X135579Y-146101D02*
D03*
X127079D02*
D03*
X135579Y-154101D02*
D03*
X127079D02*
D03*
X135579Y-162101D02*
D03*
X127079D02*
D03*
X76471Y-108854D02*
D03*
X84971D02*
D03*
Y-126988D02*
D03*
X76471D02*
D03*
X84971Y-117940D02*
D03*
X76471D02*
D03*
D59*
X-3381Y-100731D02*
D03*
X162D02*
D03*
X-3381Y-106850D02*
D03*
X162D02*
D03*
X-3381Y-112969D02*
D03*
X162D02*
D03*
D60*
X97889Y-76981D02*
D03*
Y-68681D02*
D03*
D61*
X87672Y-77289D02*
D03*
Y-68789D02*
D03*
X94067Y-37917D02*
D03*
Y-46417D02*
D03*
X82746Y-37917D02*
D03*
Y-46417D02*
D03*
D62*
X61442Y-125261D02*
D03*
Y-122111D02*
D03*
Y-118962D02*
D03*
Y-115812D02*
D03*
Y-112662D02*
D03*
Y-109513D02*
D03*
Y-106363D02*
D03*
Y-103214D02*
D03*
X28371D02*
D03*
Y-106363D02*
D03*
Y-109513D02*
D03*
Y-112662D02*
D03*
Y-115812D02*
D03*
Y-118962D02*
D03*
Y-122111D02*
D03*
Y-125261D02*
D03*
D63*
X55930Y-97702D02*
D03*
X52781D02*
D03*
X49631D02*
D03*
X46481D02*
D03*
X43332D02*
D03*
X40182D02*
D03*
X37033D02*
D03*
X33883D02*
D03*
Y-130773D02*
D03*
X37033D02*
D03*
X40182D02*
D03*
X43332D02*
D03*
X46481D02*
D03*
X49631D02*
D03*
X52781D02*
D03*
X55930D02*
D03*
D64*
X1781Y-131103D02*
D03*
X9581D02*
D03*
X1878Y-124057D02*
D03*
X9678D02*
D03*
X45814Y-146652D02*
D03*
X38014D02*
D03*
D65*
X77646Y-78358D02*
D03*
Y-74815D02*
D03*
M02*
