%FSLAX25Y25*%
%MOIN*%
G70*
G01*
G75*
%ADD10R,0.04921X0.07284*%
%ADD11R,0.09252X0.09449*%
%ADD12C,0.02756*%
%ADD13C,0.03150*%
%ADD14C,0.01969*%
%ADD15C,0.05906*%
%ADD16R,0.05906X0.05906*%
%ADD17C,0.06000*%
%ADD18O,0.09449X0.07874*%
%ADD19C,0.07874*%
%ADD20O,0.05906X0.09843*%
%ADD21C,0.04528*%
%ADD22C,0.02756*%
%ADD23C,0.03150*%
%ADD24C,0.13780*%
%ADD25C,0.17000*%
%ADD26R,0.08268X0.03937*%
%ADD27R,0.04500X0.05906*%
%ADD28R,0.02362X0.03937*%
%ADD29R,0.06299X0.05118*%
%ADD30R,0.05906X0.04500*%
%ADD31O,0.06496X0.02165*%
%ADD32O,0.02165X0.06496*%
%ADD33R,0.04000X0.05512*%
%ADD34R,0.03937X0.02362*%
%ADD35C,0.02362*%
D10*
X137245Y-89157D02*
D03*
X124450D02*
D03*
X137245Y-102936D02*
D03*
X124450D02*
D03*
D11*
X71374Y-134896D02*
D03*
Y-154187D02*
D03*
D15*
X67451Y-169531D02*
D03*
X57451D02*
D03*
X47451D02*
D03*
X37451D02*
D03*
X27451D02*
D03*
D16*
X17451D02*
D03*
D17*
X13058Y-118416D02*
D03*
Y-138416D02*
D03*
D18*
X118849Y-118939D02*
D03*
X144833D02*
D03*
X118849Y-137049D02*
D03*
X144833D02*
D03*
D19*
X50158Y-68416D02*
D03*
X40158D02*
D03*
X30158Y-38416D02*
D03*
X55158Y-28416D02*
D03*
X136781Y-68565D02*
D03*
X126781D02*
D03*
X116781Y-38565D02*
D03*
X141781Y-28565D02*
D03*
X165713Y-68565D02*
D03*
X155713D02*
D03*
X145713Y-38565D02*
D03*
X170713Y-28565D02*
D03*
X21082Y-68416D02*
D03*
X11082D02*
D03*
X1082Y-38416D02*
D03*
X26082Y-28416D02*
D03*
D20*
X74016Y11781D02*
D03*
X103150D02*
D03*
D21*
X88583Y-10463D02*
D03*
X85433Y-5739D02*
D03*
X82284Y-10463D02*
D03*
X91732Y-5739D02*
D03*
X94882Y-10463D02*
D03*
M02*
