%FSLAX25Y25*%
%MOIN*%
G70*
G01*
G75*
G04 Layer_Color=255*
%ADD10R,0.04921X0.07284*%
%ADD11R,0.09252X0.09449*%
%ADD12C,0.02756*%
%ADD13C,0.03150*%
%ADD14C,0.01969*%
%ADD15C,0.05906*%
%ADD16R,0.05906X0.05906*%
%ADD17C,0.06000*%
%ADD18O,0.09449X0.07874*%
%ADD19C,0.07874*%
%ADD20O,0.05906X0.09843*%
%ADD21C,0.04528*%
%ADD22C,0.02756*%
%ADD23C,0.03150*%
%ADD24C,0.13780*%
%ADD25C,0.17000*%
%ADD26R,0.08268X0.03937*%
%ADD27R,0.04500X0.05906*%
%ADD28R,0.02362X0.03937*%
%ADD29R,0.06299X0.05118*%
%ADD30R,0.05906X0.04500*%
%ADD31O,0.06496X0.02165*%
%ADD32O,0.02165X0.06496*%
%ADD33R,0.04000X0.05512*%
%ADD34R,0.03937X0.02362*%
%ADD35C,0.02362*%
D15*
X67451Y-169531D02*
D03*
X57451D02*
D03*
X47451D02*
D03*
X37451D02*
D03*
X27451D02*
D03*
D16*
X17451D02*
D03*
D17*
X13058Y-118416D02*
D03*
Y-138416D02*
D03*
D18*
X118849Y-118939D02*
D03*
X144833D02*
D03*
X118849Y-137049D02*
D03*
X144833D02*
D03*
D19*
X50158Y-68416D02*
D03*
X40158D02*
D03*
X30158Y-38416D02*
D03*
X55158Y-28416D02*
D03*
X136781Y-68565D02*
D03*
X126781D02*
D03*
X116781Y-38565D02*
D03*
X141781Y-28565D02*
D03*
X165713Y-68565D02*
D03*
X155713D02*
D03*
X145713Y-38565D02*
D03*
X170713Y-28565D02*
D03*
X21082Y-68416D02*
D03*
X11082D02*
D03*
X1082Y-38416D02*
D03*
X26082Y-28416D02*
D03*
D20*
X74016Y11781D02*
D03*
X103150D02*
D03*
D21*
X88583Y-10463D02*
D03*
X85433Y-5739D02*
D03*
X82284Y-10463D02*
D03*
X91732Y-5739D02*
D03*
X94882Y-10463D02*
D03*
D26*
X82576Y-147435D02*
D03*
Y-154324D02*
D03*
Y-161214D02*
D03*
X105214D02*
D03*
Y-154324D02*
D03*
Y-147435D02*
D03*
D27*
X135579Y-146101D02*
D03*
X127079D02*
D03*
X135579Y-154101D02*
D03*
X127079D02*
D03*
X135579Y-162101D02*
D03*
X127079D02*
D03*
X76471Y-108854D02*
D03*
X84971D02*
D03*
Y-126988D02*
D03*
X76471D02*
D03*
X84971Y-117940D02*
D03*
X76471D02*
D03*
D28*
X-3381Y-100731D02*
D03*
X162D02*
D03*
X-3381Y-106850D02*
D03*
X162D02*
D03*
X-3381Y-112969D02*
D03*
X162D02*
D03*
D29*
X97889Y-76981D02*
D03*
Y-68681D02*
D03*
D30*
X87672Y-77289D02*
D03*
Y-68789D02*
D03*
X94067Y-37917D02*
D03*
Y-46417D02*
D03*
X82746Y-37917D02*
D03*
Y-46417D02*
D03*
D31*
X61442Y-125261D02*
D03*
Y-122111D02*
D03*
Y-118962D02*
D03*
Y-115812D02*
D03*
Y-112662D02*
D03*
Y-109513D02*
D03*
Y-106363D02*
D03*
Y-103214D02*
D03*
X28371D02*
D03*
Y-106363D02*
D03*
Y-109513D02*
D03*
Y-112662D02*
D03*
Y-115812D02*
D03*
Y-118962D02*
D03*
Y-122111D02*
D03*
Y-125261D02*
D03*
D32*
X55930Y-97702D02*
D03*
X52781D02*
D03*
X49631D02*
D03*
X46481D02*
D03*
X43332D02*
D03*
X40182D02*
D03*
X37033D02*
D03*
X33883D02*
D03*
Y-130773D02*
D03*
X37033D02*
D03*
X40182D02*
D03*
X43332D02*
D03*
X46481D02*
D03*
X49631D02*
D03*
X52781D02*
D03*
X55930D02*
D03*
D33*
X1781Y-131103D02*
D03*
X9581D02*
D03*
X1878Y-124057D02*
D03*
X9678D02*
D03*
X45814Y-146652D02*
D03*
X38014D02*
D03*
D34*
X77646Y-78358D02*
D03*
Y-74815D02*
D03*
M02*
